<svg xmlns="http://www.w3.org/2000/svg" xmlns:xlink="http://www.w3.org/1999/xlink" width="250" zoomAndPan="magnify" viewBox="0 0 187.5 37.5" height="50" preserveAspectRatio="xMidYMid meet" version="1.0"><defs><g/><clipPath id="58ee110f93"><path d="M 14.175781 4 L 37.859375 4 L 37.859375 33.066406 L 14.175781 33.066406 Z M 14.175781 4 " clip-rule="nonzero"/></clipPath></defs><g fill="#2980b9" fill-opacity="1"><g transform="translate(37.61497, 19.972809)"><g><path d="M 1.8125 -10.453125 L 1.8125 -5.890625 L 3.90625 -5.890625 C 4.65625 -5.890625 5.25 -6.109375 5.6875 -6.546875 C 6.132812 -6.984375 6.359375 -7.554688 6.359375 -8.265625 C 6.359375 -8.648438 6.296875 -8.984375 6.171875 -9.265625 C 6.054688 -9.546875 5.882812 -9.769531 5.65625 -9.9375 C 5.4375 -10.113281 5.171875 -10.242188 4.859375 -10.328125 C 4.554688 -10.410156 4.21875 -10.453125 3.84375 -10.453125 Z M 1.8125 -5.25 L 1.8125 -0.640625 L 3.921875 -0.640625 C 4.316406 -0.640625 4.6875 -0.6875 5.03125 -0.78125 C 5.375 -0.875 5.671875 -1.015625 5.921875 -1.203125 C 6.179688 -1.390625 6.390625 -1.625 6.546875 -1.90625 C 6.703125 -2.1875 6.78125 -2.515625 6.78125 -2.890625 C 6.78125 -3.304688 6.691406 -3.660156 6.515625 -3.953125 C 6.335938 -4.253906 6.101562 -4.5 5.8125 -4.6875 C 5.519531 -4.882812 5.1875 -5.023438 4.8125 -5.109375 C 4.4375 -5.203125 4.050781 -5.25 3.65625 -5.25 Z M 1.171875 0 L 1.171875 -11.078125 L 3.703125 -11.078125 C 4.203125 -11.078125 4.65625 -11.023438 5.0625 -10.921875 C 5.46875 -10.816406 5.8125 -10.648438 6.09375 -10.421875 C 6.382812 -10.203125 6.609375 -9.914062 6.765625 -9.5625 C 6.929688 -9.207031 7.015625 -8.789062 7.015625 -8.3125 C 7.015625 -7.65625 6.851562 -7.078125 6.53125 -6.578125 C 6.207031 -6.085938 5.710938 -5.753906 5.046875 -5.578125 C 5.367188 -5.503906 5.671875 -5.394531 5.953125 -5.25 C 6.234375 -5.101562 6.484375 -4.914062 6.703125 -4.6875 C 6.921875 -4.457031 7.09375 -4.1875 7.21875 -3.875 C 7.351562 -3.570312 7.421875 -3.226562 7.421875 -2.84375 C 7.421875 -2.375 7.328125 -1.960938 7.140625 -1.609375 C 6.953125 -1.253906 6.695312 -0.957031 6.375 -0.71875 C 6.050781 -0.476562 5.679688 -0.296875 5.265625 -0.171875 C 4.859375 -0.0546875 4.429688 0 3.984375 0 Z M 1.171875 0 "/></g></g></g><g fill="#2980b9" fill-opacity="1"><g transform="translate(46.078812, 19.972809)"><g><path d="M 1.8125 -5.859375 L 3.46875 -5.859375 C 4.019531 -5.859375 4.472656 -5.929688 4.828125 -6.078125 C 5.191406 -6.222656 5.484375 -6.410156 5.703125 -6.640625 C 5.921875 -6.878906 6.070312 -7.128906 6.15625 -7.390625 C 6.238281 -7.660156 6.28125 -7.925781 6.28125 -8.1875 C 6.28125 -8.476562 6.207031 -8.757812 6.0625 -9.03125 C 5.925781 -9.3125 5.726562 -9.554688 5.46875 -9.765625 C 5.21875 -9.972656 4.921875 -10.140625 4.578125 -10.265625 C 4.234375 -10.390625 3.867188 -10.453125 3.484375 -10.453125 L 1.8125 -10.453125 Z M 1.171875 0 L 1.171875 -11.078125 L 3.546875 -11.078125 C 3.867188 -11.078125 4.222656 -11.023438 4.609375 -10.921875 C 5.003906 -10.816406 5.375 -10.644531 5.71875 -10.40625 C 6.0625 -10.175781 6.347656 -9.875 6.578125 -9.5 C 6.816406 -9.132812 6.9375 -8.695312 6.9375 -8.1875 C 6.9375 -7.425781 6.734375 -6.796875 6.328125 -6.296875 C 5.921875 -5.796875 5.332031 -5.460938 4.5625 -5.296875 C 4.976562 -4.398438 5.394531 -3.515625 5.8125 -2.640625 C 6.226562 -1.765625 6.644531 -0.882812 7.0625 0 L 6.34375 0 C 5.9375 -0.882812 5.523438 -1.757812 5.109375 -2.625 C 4.703125 -3.488281 4.289062 -4.359375 3.875 -5.234375 C 3.78125 -5.222656 3.6875 -5.210938 3.59375 -5.203125 C 3.507812 -5.203125 3.421875 -5.203125 3.328125 -5.203125 L 1.8125 -5.203125 L 1.8125 0 Z M 1.171875 0 "/></g></g></g><g fill="#2980b9" fill-opacity="1"><g transform="translate(54.068046, 19.972809)"><g><path d="M 5.171875 0.125 C 4.640625 0.125 4.144531 0.046875 3.6875 -0.109375 C 3.226562 -0.265625 2.832031 -0.5 2.5 -0.8125 C 2.175781 -1.125 1.921875 -1.507812 1.734375 -1.96875 C 1.546875 -2.4375 1.453125 -2.972656 1.453125 -3.578125 L 1.453125 -11.078125 L 2.109375 -11.078125 L 2.109375 -3.625 C 2.109375 -3.113281 2.179688 -2.664062 2.328125 -2.28125 C 2.484375 -1.894531 2.695312 -1.570312 2.96875 -1.3125 C 3.238281 -1.050781 3.5625 -0.847656 3.9375 -0.703125 C 4.320312 -0.566406 4.734375 -0.5 5.171875 -0.5 C 5.617188 -0.5 6.03125 -0.566406 6.40625 -0.703125 C 6.78125 -0.847656 7.101562 -1.050781 7.375 -1.3125 C 7.65625 -1.570312 7.875 -1.894531 8.03125 -2.28125 C 8.1875 -2.664062 8.265625 -3.113281 8.265625 -3.625 L 8.265625 -11.078125 L 8.921875 -11.078125 L 8.921875 -3.578125 C 8.921875 -2.972656 8.828125 -2.4375 8.640625 -1.96875 C 8.453125 -1.507812 8.1875 -1.125 7.84375 -0.8125 C 7.507812 -0.5 7.113281 -0.265625 6.65625 -0.109375 C 6.195312 0.046875 5.703125 0.125 5.171875 0.125 Z M 5.171875 0.125 "/></g></g></g><g fill="#2980b9" fill-opacity="1"><g transform="translate(64.382861, 19.972809)"><g><path d="M 11.25 -11.078125 L 11.25 0.5 C 9.769531 -1.195312 8.304688 -2.878906 6.859375 -4.546875 C 5.421875 -6.222656 3.96875 -7.910156 2.5 -9.609375 C 2.445312 -9.679688 2.394531 -9.75 2.34375 -9.8125 C 2.300781 -9.875 2.253906 -9.941406 2.203125 -10.015625 C 2.210938 -9.929688 2.21875 -9.847656 2.21875 -9.765625 C 2.226562 -9.679688 2.238281 -9.597656 2.25 -9.515625 L 2.25 0 L 1.578125 0 L 1.578125 -11.59375 C 3.054688 -9.863281 4.519531 -8.15625 5.96875 -6.46875 C 7.414062 -4.789062 8.867188 -3.097656 10.328125 -1.390625 C 10.390625 -1.316406 10.441406 -1.25 10.484375 -1.1875 C 10.535156 -1.125 10.585938 -1.054688 10.640625 -0.984375 C 10.628906 -1.066406 10.617188 -1.148438 10.609375 -1.234375 C 10.609375 -1.316406 10.601562 -1.398438 10.59375 -1.484375 L 10.59375 -11.078125 Z M 11.25 -11.078125 "/></g></g></g><g fill="#2980b9" fill-opacity="1"><g transform="translate(77.244736, 19.972809)"><g><path d="M 0.984375 -5.53125 C 0.984375 -6.300781 1.128906 -7.03125 1.421875 -7.71875 C 1.722656 -8.414062 2.128906 -9.019531 2.640625 -9.53125 C 3.148438 -10.039062 3.742188 -10.445312 4.421875 -10.75 C 5.109375 -11.050781 5.84375 -11.203125 6.625 -11.203125 C 7.40625 -11.203125 8.140625 -11.050781 8.828125 -10.75 C 9.523438 -10.445312 10.128906 -10.039062 10.640625 -9.53125 C 11.148438 -9.019531 11.554688 -8.414062 11.859375 -7.71875 C 12.160156 -7.03125 12.3125 -6.300781 12.3125 -5.53125 C 12.3125 -4.75 12.160156 -4.015625 11.859375 -3.328125 C 11.554688 -2.640625 11.148438 -2.039062 10.640625 -1.53125 C 10.128906 -1.019531 9.523438 -0.613281 8.828125 -0.3125 C 8.140625 -0.0195312 7.40625 0.125 6.625 0.125 C 5.84375 0.125 5.109375 -0.0195312 4.421875 -0.3125 C 3.742188 -0.613281 3.148438 -1.019531 2.640625 -1.53125 C 2.128906 -2.039062 1.722656 -2.640625 1.421875 -3.328125 C 1.128906 -4.015625 0.984375 -4.75 0.984375 -5.53125 Z M 1.640625 -5.515625 C 1.640625 -4.816406 1.769531 -4.160156 2.03125 -3.546875 C 2.289062 -2.941406 2.644531 -2.414062 3.09375 -1.96875 C 3.550781 -1.519531 4.082031 -1.160156 4.6875 -0.890625 C 5.289062 -0.628906 5.929688 -0.5 6.609375 -0.5 C 7.296875 -0.5 7.945312 -0.628906 8.5625 -0.890625 C 9.175781 -1.160156 9.710938 -1.519531 10.171875 -1.96875 C 10.628906 -2.425781 10.988281 -2.957031 11.25 -3.5625 C 11.519531 -4.175781 11.65625 -4.832031 11.65625 -5.53125 C 11.65625 -6.21875 11.519531 -6.867188 11.25 -7.484375 C 10.988281 -8.097656 10.628906 -8.632812 10.171875 -9.09375 C 9.722656 -9.550781 9.191406 -9.910156 8.578125 -10.171875 C 7.960938 -10.441406 7.3125 -10.578125 6.625 -10.578125 C 5.945312 -10.578125 5.300781 -10.441406 4.6875 -10.171875 C 4.082031 -9.898438 3.550781 -9.535156 3.09375 -9.078125 C 2.644531 -8.617188 2.289062 -8.082031 2.03125 -7.46875 C 1.769531 -6.851562 1.640625 -6.203125 1.640625 -5.515625 Z M 1.640625 -5.515625 "/></g></g></g><g fill="#2980b9" fill-opacity="1"><g transform="translate(90.533765, 19.972809)"><g/></g></g><g fill="#2980b9" fill-opacity="1"><g transform="translate(95.279841, 19.972809)"><g><path d="M 1.578125 -11.59375 C 2.546875 -10.332031 3.507812 -9.078125 4.46875 -7.828125 C 5.4375 -6.578125 6.40625 -5.320312 7.375 -4.0625 C 8.34375 -5.320312 9.304688 -6.578125 10.265625 -7.828125 C 11.234375 -9.078125 12.203125 -10.332031 13.171875 -11.59375 L 13.171875 0 L 12.5 0 L 12.5 -9.09375 C 12.507812 -9.207031 12.515625 -9.3125 12.515625 -9.40625 C 12.523438 -9.507812 12.53125 -9.617188 12.53125 -9.734375 C 11.695312 -8.578125 10.84375 -7.441406 9.96875 -6.328125 C 9.101562 -5.210938 8.238281 -4.085938 7.375 -2.953125 C 6.644531 -3.910156 5.925781 -4.847656 5.21875 -5.765625 C 4.507812 -6.691406 3.796875 -7.628906 3.078125 -8.578125 L 2.40625 -9.4375 C 2.375 -9.488281 2.34375 -9.535156 2.3125 -9.578125 C 2.28125 -9.628906 2.25 -9.679688 2.21875 -9.734375 C 2.21875 -9.617188 2.21875 -9.507812 2.21875 -9.40625 C 2.226562 -9.3125 2.238281 -9.207031 2.25 -9.09375 L 2.25 0 L 1.578125 0 Z M 1.578125 -11.59375 "/></g></g></g><g fill="#2980b9" fill-opacity="1"><g transform="translate(110.103432, 19.972809)"><g><path d="M 6 -9.671875 C 5.976562 -9.742188 5.953125 -9.816406 5.921875 -9.890625 C 5.898438 -9.960938 5.878906 -10.035156 5.859375 -10.109375 C 5.578125 -9.304688 5.265625 -8.515625 4.921875 -7.734375 C 4.585938 -6.953125 4.25 -6.164062 3.90625 -5.375 L 7.8125 -5.375 C 7.507812 -6.101562 7.207031 -6.820312 6.90625 -7.53125 C 6.601562 -8.238281 6.300781 -8.953125 6 -9.671875 Z M 10.765625 0 L 10.09375 0 C 9.757812 -0.789062 9.425781 -1.582031 9.09375 -2.375 C 8.757812 -3.164062 8.425781 -3.957031 8.09375 -4.75 L 3.640625 -4.75 C 3.304688 -3.957031 2.972656 -3.164062 2.640625 -2.375 C 2.304688 -1.582031 1.96875 -0.789062 1.625 0 L 0.953125 0 C 1.773438 -1.9375 2.59375 -3.863281 3.40625 -5.78125 C 4.21875 -7.707031 5.035156 -9.644531 5.859375 -11.59375 C 6.679688 -9.644531 7.5 -7.707031 8.3125 -5.78125 C 9.125 -3.863281 9.941406 -1.9375 10.765625 0 Z M 10.765625 0 "/></g></g></g><g fill="#2980b9" fill-opacity="1"><g transform="translate(121.810433, 19.972809)"><g><path d="M 1.8125 -5.859375 L 3.46875 -5.859375 C 4.019531 -5.859375 4.472656 -5.929688 4.828125 -6.078125 C 5.191406 -6.222656 5.484375 -6.410156 5.703125 -6.640625 C 5.921875 -6.878906 6.070312 -7.128906 6.15625 -7.390625 C 6.238281 -7.660156 6.28125 -7.925781 6.28125 -8.1875 C 6.28125 -8.476562 6.207031 -8.757812 6.0625 -9.03125 C 5.925781 -9.3125 5.726562 -9.554688 5.46875 -9.765625 C 5.21875 -9.972656 4.921875 -10.140625 4.578125 -10.265625 C 4.234375 -10.390625 3.867188 -10.453125 3.484375 -10.453125 L 1.8125 -10.453125 Z M 1.171875 0 L 1.171875 -11.078125 L 3.546875 -11.078125 C 3.867188 -11.078125 4.222656 -11.023438 4.609375 -10.921875 C 5.003906 -10.816406 5.375 -10.644531 5.71875 -10.40625 C 6.0625 -10.175781 6.347656 -9.875 6.578125 -9.5 C 6.816406 -9.132812 6.9375 -8.695312 6.9375 -8.1875 C 6.9375 -7.425781 6.734375 -6.796875 6.328125 -6.296875 C 5.921875 -5.796875 5.332031 -5.460938 4.5625 -5.296875 C 4.976562 -4.398438 5.394531 -3.515625 5.8125 -2.640625 C 6.226562 -1.765625 6.644531 -0.882812 7.0625 0 L 6.34375 0 C 5.9375 -0.882812 5.523438 -1.757812 5.109375 -2.625 C 4.703125 -3.488281 4.289062 -4.359375 3.875 -5.234375 C 3.78125 -5.222656 3.6875 -5.210938 3.59375 -5.203125 C 3.507812 -5.203125 3.421875 -5.203125 3.328125 -5.203125 L 1.8125 -5.203125 L 1.8125 0 Z M 1.171875 0 "/></g></g></g><g fill="#2980b9" fill-opacity="1"><g transform="translate(129.799666, 19.972809)"><g><path d="M 1.640625 -11.078125 L 2.296875 -11.078125 L 2.296875 0 L 1.640625 0 Z M 1.640625 -11.078125 "/></g></g></g><g fill="#2980b9" fill-opacity="1"><g transform="translate(133.723088, 19.972809)"><g><path d="M 6 -9.671875 C 5.976562 -9.742188 5.953125 -9.816406 5.921875 -9.890625 C 5.898438 -9.960938 5.878906 -10.035156 5.859375 -10.109375 C 5.578125 -9.304688 5.265625 -8.515625 4.921875 -7.734375 C 4.585938 -6.953125 4.25 -6.164062 3.90625 -5.375 L 7.8125 -5.375 C 7.507812 -6.101562 7.207031 -6.820312 6.90625 -7.53125 C 6.601562 -8.238281 6.300781 -8.953125 6 -9.671875 Z M 10.765625 0 L 10.09375 0 C 9.757812 -0.789062 9.425781 -1.582031 9.09375 -2.375 C 8.757812 -3.164062 8.425781 -3.957031 8.09375 -4.75 L 3.640625 -4.75 C 3.304688 -3.957031 2.972656 -3.164062 2.640625 -2.375 C 2.304688 -1.582031 1.96875 -0.789062 1.625 0 L 0.953125 0 C 1.773438 -1.9375 2.59375 -3.863281 3.40625 -5.78125 C 4.21875 -7.707031 5.035156 -9.644531 5.859375 -11.59375 C 6.679688 -9.644531 7.5 -7.707031 8.3125 -5.78125 C 9.125 -3.863281 9.941406 -1.9375 10.765625 0 Z M 10.765625 0 "/></g></g></g><g fill="#2980b9" fill-opacity="1"><g transform="translate(145.430089, 19.972809)"><g><path d="M 11.25 -11.078125 L 11.25 0.5 C 9.769531 -1.195312 8.304688 -2.878906 6.859375 -4.546875 C 5.421875 -6.222656 3.96875 -7.910156 2.5 -9.609375 C 2.445312 -9.679688 2.394531 -9.75 2.34375 -9.8125 C 2.300781 -9.875 2.253906 -9.941406 2.203125 -10.015625 C 2.210938 -9.929688 2.21875 -9.847656 2.21875 -9.765625 C 2.226562 -9.679688 2.238281 -9.597656 2.25 -9.515625 L 2.25 0 L 1.578125 0 L 1.578125 -11.59375 C 3.054688 -9.863281 4.519531 -8.15625 5.96875 -6.46875 C 7.414062 -4.789062 8.867188 -3.097656 10.328125 -1.390625 C 10.390625 -1.316406 10.441406 -1.25 10.484375 -1.1875 C 10.535156 -1.125 10.585938 -1.054688 10.640625 -0.984375 C 10.628906 -1.066406 10.617188 -1.148438 10.609375 -1.234375 C 10.609375 -1.316406 10.601562 -1.398438 10.59375 -1.484375 L 10.59375 -11.078125 Z M 11.25 -11.078125 "/></g></g></g><g fill="#2980b9" fill-opacity="1"><g transform="translate(158.291964, 19.972809)"><g><path d="M 0.984375 -5.53125 C 0.984375 -6.300781 1.128906 -7.03125 1.421875 -7.71875 C 1.722656 -8.414062 2.128906 -9.019531 2.640625 -9.53125 C 3.148438 -10.039062 3.742188 -10.445312 4.421875 -10.75 C 5.109375 -11.050781 5.84375 -11.203125 6.625 -11.203125 C 7.40625 -11.203125 8.140625 -11.050781 8.828125 -10.75 C 9.523438 -10.445312 10.128906 -10.039062 10.640625 -9.53125 C 11.148438 -9.019531 11.554688 -8.414062 11.859375 -7.71875 C 12.160156 -7.03125 12.3125 -6.300781 12.3125 -5.53125 C 12.3125 -4.75 12.160156 -4.015625 11.859375 -3.328125 C 11.554688 -2.640625 11.148438 -2.039062 10.640625 -1.53125 C 10.128906 -1.019531 9.523438 -0.613281 8.828125 -0.3125 C 8.140625 -0.0195312 7.40625 0.125 6.625 0.125 C 5.84375 0.125 5.109375 -0.0195312 4.421875 -0.3125 C 3.742188 -0.613281 3.148438 -1.019531 2.640625 -1.53125 C 2.128906 -2.039062 1.722656 -2.640625 1.421875 -3.328125 C 1.128906 -4.015625 0.984375 -4.75 0.984375 -5.53125 Z M 1.640625 -5.515625 C 1.640625 -4.816406 1.769531 -4.160156 2.03125 -3.546875 C 2.289062 -2.941406 2.644531 -2.414062 3.09375 -1.96875 C 3.550781 -1.519531 4.082031 -1.160156 4.6875 -0.890625 C 5.289062 -0.628906 5.929688 -0.5 6.609375 -0.5 C 7.296875 -0.5 7.945312 -0.628906 8.5625 -0.890625 C 9.175781 -1.160156 9.710938 -1.519531 10.171875 -1.96875 C 10.628906 -2.425781 10.988281 -2.957031 11.25 -3.5625 C 11.519531 -4.175781 11.65625 -4.832031 11.65625 -5.53125 C 11.65625 -6.21875 11.519531 -6.867188 11.25 -7.484375 C 10.988281 -8.097656 10.628906 -8.632812 10.171875 -9.09375 C 9.722656 -9.550781 9.191406 -9.910156 8.578125 -10.171875 C 7.960938 -10.441406 7.3125 -10.578125 6.625 -10.578125 C 5.945312 -10.578125 5.300781 -10.441406 4.6875 -10.171875 C 4.082031 -9.898438 3.550781 -9.535156 3.09375 -9.078125 C 2.644531 -8.617188 2.289062 -8.082031 2.03125 -7.46875 C 1.769531 -6.851562 1.640625 -6.203125 1.640625 -5.515625 Z M 1.640625 -5.515625 "/></g></g></g><g clip-path="url(#58ee110f93)"><path fill="#e0e5ec" d="M 34.375 29.476562 L 22.832031 29.476562 C 21.15625 29.476562 20.277344 31.523438 21.484375 32.730469 C 21.828125 33.074219 22.308594 33.292969 22.832031 33.292969 L 33.726562 33.292969 C 34.777344 33.292969 35.636719 32.433594 35.636719 31.382812 L 35.636719 30.738281 C 35.636719 30.042969 35.070312 29.476562 34.375 29.476562 Z M 19.820312 14.453125 C 18.597656 13.230469 16.617188 13.230469 15.394531 14.453125 C 14.175781 15.671875 14.175781 17.65625 15.394531 18.875 C 16.617188 20.097656 18.597656 20.097656 19.820312 18.875 C 21.042969 17.648438 21.042969 15.667969 19.820312 14.453125 Z M 17.378906 16.117188 C 16.902344 15.640625 16.082031 15.976562 16.082031 16.652344 C 16.082031 17.324219 16.902344 17.660156 17.378906 17.1875 C 17.675781 16.890625 17.675781 16.414062 17.378906 16.117188 Z M 16.835938 15.230469 C 18.097656 15.230469 18.730469 16.761719 17.839844 17.65625 C 16.949219 18.546875 15.417969 17.914062 15.417969 16.652344 C 15.421875 15.867188 16.058594 15.230469 16.835938 15.230469 Z M 28.304688 13.9375 L 26.945312 13.9375 L 26.945312 16.78125 L 28.304688 16.78125 Z M 26.617188 13.277344 L 28.636719 13.277344 C 28.820312 13.277344 28.96875 13.421875 28.96875 13.605469 L 28.96875 17.113281 C 28.96875 17.292969 28.820312 17.445312 28.636719 17.445312 L 26.617188 17.445312 C 26.4375 17.445312 26.285156 17.296875 26.285156 17.113281 L 26.285156 13.613281 C 26.285156 13.429688 26.429688 13.277344 26.617188 13.277344 Z M 24.933594 15.117188 C 25.367188 15.117188 25.367188 15.78125 24.933594 15.78125 L 24.390625 15.78125 L 24.390625 17.3125 L 24.933594 17.3125 C 25.367188 17.3125 25.367188 17.972656 24.933594 17.972656 L 24.390625 17.972656 L 24.390625 18.597656 L 30.863281 18.597656 L 30.863281 17.972656 L 30.347656 17.972656 C 29.910156 17.972656 29.910156 17.3125 30.347656 17.3125 L 30.863281 17.3125 L 30.863281 15.78125 L 30.347656 15.78125 C 29.910156 15.78125 29.910156 15.117188 30.347656 15.117188 L 30.863281 15.117188 L 30.863281 13.585938 L 30.347656 13.585938 C 29.910156 13.585938 29.910156 12.925781 30.347656 12.925781 L 30.863281 12.925781 L 30.863281 12.128906 L 24.390625 12.128906 L 24.390625 12.925781 L 24.933594 12.925781 C 25.367188 12.925781 25.367188 13.585938 24.933594 13.585938 L 24.390625 13.585938 L 24.390625 15.117188 Z M 28.523438 25.539062 C 29.746094 24.636719 30.40625 23.183594 30.550781 21.222656 C 30.585938 20.785156 31.246094 20.835938 31.207031 21.265625 C 30.875 25.75 28.027344 27.347656 24.226562 27.328125 L 24.226562 28.816406 L 33.167969 28.816406 L 33.167969 25.554688 C 33.167969 25.421875 33.246094 25.300781 33.359375 25.25 C 34.25 24.753906 35.0625 24.140625 35.78125 23.425781 C 36.488281 22.734375 37.101562 21.941406 37.605469 21.082031 L 37.605469 9.816406 C 36.621094 8.132812 35.214844 6.726562 33.53125 5.742188 C 29.621094 3.46875 24.714844 3.789062 21.128906 6.507812 C 19.0625 8.078125 17.570312 10.332031 16.976562 12.921875 C 18.703125 12.621094 20.382812 13.554688 21.082031 15.117188 L 23.738281 15.117188 L 23.738281 13.585938 L 22.609375 13.585938 C 22.421875 13.585938 22.277344 13.441406 22.277344 13.257812 L 22.277344 10.082031 C 21.628906 9.84375 21.4375 9.003906 21.933594 8.507812 C 22.535156 7.90625 23.558594 8.335938 23.558594 9.183594 C 23.558594 9.585938 23.300781 9.941406 22.9375 10.074219 L 22.9375 12.921875 L 23.730469 12.921875 L 23.730469 11.789062 C 23.730469 11.613281 23.875 11.460938 24.058594 11.460938 L 31.191406 11.460938 C 31.371094 11.460938 31.523438 11.605469 31.523438 11.789062 L 31.523438 12.921875 L 33.292969 12.921875 L 33.292969 10.074219 C 32.644531 9.835938 32.453125 8.996094 32.949219 8.503906 C 33.550781 7.902344 34.574219 8.332031 34.574219 9.175781 C 34.574219 9.578125 34.316406 9.933594 33.953125 10.066406 L 33.953125 13.242188 C 33.953125 13.421875 33.808594 13.574219 33.621094 13.574219 L 31.523438 13.574219 L 31.523438 15.105469 L 34.765625 15.105469 C 35.003906 14.457031 35.839844 14.265625 36.335938 14.761719 C 36.9375 15.363281 36.507812 16.386719 35.664062 16.386719 C 35.253906 16.386719 34.902344 16.128906 34.773438 15.765625 L 31.523438 15.765625 L 31.523438 17.3125 L 33.628906 17.3125 C 33.808594 17.3125 33.960938 17.457031 33.960938 17.640625 L 33.960938 20.816406 C 34.605469 21.054688 34.796875 21.894531 34.300781 22.382812 C 33.703125 22.984375 32.679688 22.554688 32.679688 21.710938 C 32.679688 21.308594 32.929688 20.949219 33.300781 20.816406 L 33.300781 17.972656 L 31.523438 17.972656 L 31.523438 18.929688 C 31.523438 19.113281 31.378906 19.257812 31.191406 19.257812 L 24.058594 19.257812 C 23.882812 19.257812 23.730469 19.113281 23.730469 18.929688 L 23.730469 17.972656 L 22.929688 17.972656 L 22.929688 20.816406 C 23.578125 21.054688 23.769531 21.894531 23.273438 22.382812 C 22.671875 22.984375 21.648438 22.554688 21.648438 21.710938 C 21.648438 21.308594 21.902344 20.949219 22.269531 20.816406 L 22.269531 17.640625 C 22.269531 17.464844 22.417969 17.3125 22.601562 17.3125 L 23.730469 17.3125 L 23.730469 15.78125 L 21.292969 15.78125 C 21.945312 18.53125 19.457031 21.007812 16.710938 20.335938 C 16.738281 22.046875 16.757812 22.929688 16.761719 25.148438 C 16.769531 25.980469 17.449219 26.664062 18.28125 26.664062 L 24.667969 26.664062 C 26.0625 26.628906 27.453125 26.332031 28.523438 25.539062 Z M 28.523438 25.539062 " fill-opacity="1" fill-rule="nonzero"/></g><g fill="#e0e5ec" fill-opacity="1"><g transform="translate(37.61497, 29.576462)"><g><path d="M 0.65625 -7.578125 L 2.421875 -7.578125 C 2.929688 -7.578125 3.414062 -7.488281 3.875 -7.3125 C 4.34375 -7.132812 4.75 -6.878906 5.09375 -6.546875 C 5.445312 -6.210938 5.722656 -5.8125 5.921875 -5.34375 C 6.117188 -4.882812 6.21875 -4.363281 6.21875 -3.78125 C 6.21875 -3.351562 6.144531 -2.914062 6 -2.46875 C 5.851562 -2.019531 5.613281 -1.613281 5.28125 -1.25 C 4.945312 -0.882812 4.515625 -0.582031 3.984375 -0.34375 C 3.453125 -0.113281 2.804688 0 2.046875 0 L 0.65625 0 Z M 1.546875 -6.71875 L 1.546875 -0.859375 L 2.3125 -0.859375 C 2.726562 -0.859375 3.117188 -0.925781 3.484375 -1.0625 C 3.859375 -1.207031 4.179688 -1.40625 4.453125 -1.65625 C 4.722656 -1.914062 4.9375 -2.222656 5.09375 -2.578125 C 5.25 -2.941406 5.328125 -3.347656 5.328125 -3.796875 C 5.328125 -4.242188 5.25 -4.644531 5.09375 -5 C 4.9375 -5.363281 4.722656 -5.671875 4.453125 -5.921875 C 4.179688 -6.179688 3.859375 -6.378906 3.484375 -6.515625 C 3.117188 -6.648438 2.726562 -6.71875 2.3125 -6.71875 Z M 1.546875 -6.71875 "/></g></g></g><g fill="#e0e5ec" fill-opacity="1"><g transform="translate(47.209726, 29.576462)"><g><path d="M 2.5625 -3.28125 C 2.269531 -3.28125 2.019531 -3.207031 1.8125 -3.0625 C 1.601562 -2.914062 1.453125 -2.726562 1.359375 -2.5 C 1.328125 -2.394531 1.300781 -2.269531 1.28125 -2.125 C 1.625 -2.25 1.960938 -2.375 2.296875 -2.5 C 2.628906 -2.625 2.96875 -2.75 3.3125 -2.875 C 3.207031 -2.988281 3.09375 -3.082031 2.96875 -3.15625 C 2.84375 -3.238281 2.707031 -3.28125 2.5625 -3.28125 Z M 4.46875 -2.359375 C 3.96875 -2.179688 3.472656 -2 2.984375 -1.8125 C 2.503906 -1.632812 2.019531 -1.457031 1.53125 -1.28125 C 1.632812 -1.125 1.773438 -1 1.953125 -0.90625 C 2.128906 -0.820312 2.332031 -0.78125 2.5625 -0.78125 C 2.882812 -0.78125 3.15625 -0.894531 3.375 -1.125 L 3.9375 -0.46875 C 3.75 -0.289062 3.539062 -0.148438 3.3125 -0.046875 C 3.082031 0.046875 2.832031 0.09375 2.5625 0.09375 C 2.25 0.09375 1.960938 0.0390625 1.703125 -0.0625 C 1.441406 -0.175781 1.210938 -0.332031 1.015625 -0.53125 C 0.816406 -0.726562 0.660156 -0.953125 0.546875 -1.203125 C 0.441406 -1.460938 0.390625 -1.738281 0.390625 -2.03125 C 0.390625 -2.320312 0.441406 -2.597656 0.546875 -2.859375 C 0.660156 -3.117188 0.816406 -3.34375 1.015625 -3.53125 C 1.210938 -3.726562 1.441406 -3.878906 1.703125 -3.984375 C 1.960938 -4.097656 2.25 -4.15625 2.5625 -4.15625 C 2.78125 -4.15625 2.992188 -4.109375 3.203125 -4.015625 C 3.410156 -3.929688 3.59375 -3.804688 3.75 -3.640625 C 3.914062 -3.484375 4.054688 -3.296875 4.171875 -3.078125 C 4.296875 -2.859375 4.394531 -2.617188 4.46875 -2.359375 Z M 4.46875 -2.359375 "/></g></g></g><g fill="#e0e5ec" fill-opacity="1"><g transform="translate(54.628754, 29.576462)"><g><path d="M 3.203125 -3.703125 C 3.128906 -3.585938 3.046875 -3.472656 2.953125 -3.359375 C 2.867188 -3.253906 2.785156 -3.144531 2.703125 -3.03125 C 2.671875 -3.070312 2.601562 -3.125 2.5 -3.1875 C 2.394531 -3.25 2.253906 -3.28125 2.078125 -3.28125 C 1.921875 -3.28125 1.804688 -3.242188 1.734375 -3.171875 C 1.660156 -3.109375 1.628906 -3.019531 1.640625 -2.90625 C 1.660156 -2.8125 1.71875 -2.738281 1.8125 -2.6875 C 1.90625 -2.632812 2.015625 -2.582031 2.140625 -2.53125 C 2.265625 -2.476562 2.398438 -2.421875 2.546875 -2.359375 C 2.691406 -2.296875 2.820312 -2.210938 2.9375 -2.109375 C 3.0625 -2.015625 3.164062 -1.894531 3.25 -1.75 C 3.332031 -1.601562 3.375 -1.414062 3.375 -1.1875 C 3.375 -1.09375 3.351562 -0.972656 3.3125 -0.828125 C 3.269531 -0.679688 3.195312 -0.535156 3.09375 -0.390625 C 2.988281 -0.253906 2.847656 -0.140625 2.671875 -0.046875 C 2.492188 0.046875 2.257812 0.09375 1.96875 0.09375 C 1.695312 0.09375 1.4375 0.046875 1.1875 -0.046875 C 0.945312 -0.140625 0.757812 -0.265625 0.625 -0.421875 C 0.71875 -0.523438 0.804688 -0.632812 0.890625 -0.75 C 0.972656 -0.863281 1.0625 -0.972656 1.15625 -1.078125 C 1.3125 -0.984375 1.441406 -0.910156 1.546875 -0.859375 C 1.660156 -0.816406 1.804688 -0.796875 1.984375 -0.796875 C 1.992188 -0.796875 2.019531 -0.796875 2.0625 -0.796875 C 2.113281 -0.796875 2.164062 -0.804688 2.21875 -0.828125 C 2.28125 -0.859375 2.332031 -0.898438 2.375 -0.953125 C 2.425781 -1.003906 2.453125 -1.082031 2.453125 -1.1875 C 2.460938 -1.3125 2.425781 -1.40625 2.34375 -1.46875 C 2.269531 -1.539062 2.171875 -1.597656 2.046875 -1.640625 C 1.921875 -1.691406 1.78125 -1.738281 1.625 -1.78125 C 1.46875 -1.832031 1.320312 -1.898438 1.1875 -1.984375 C 1.0625 -2.066406 0.953125 -2.179688 0.859375 -2.328125 C 0.773438 -2.484375 0.734375 -2.6875 0.734375 -2.9375 C 0.734375 -3.164062 0.773438 -3.351562 0.859375 -3.5 C 0.953125 -3.65625 1.0625 -3.78125 1.1875 -3.875 C 1.320312 -3.976562 1.460938 -4.050781 1.609375 -4.09375 C 1.765625 -4.132812 1.90625 -4.15625 2.03125 -4.15625 C 2.101562 -4.15625 2.191406 -4.144531 2.296875 -4.125 C 2.398438 -4.113281 2.503906 -4.085938 2.609375 -4.046875 C 2.710938 -4.015625 2.816406 -3.96875 2.921875 -3.90625 C 3.035156 -3.851562 3.128906 -3.785156 3.203125 -3.703125 Z M 3.203125 -3.703125 "/></g></g></g><g fill="#e0e5ec" fill-opacity="1"><g transform="translate(60.997813, 29.576462)"><g><path d="M 2.5625 -3.28125 C 2.269531 -3.28125 2.019531 -3.207031 1.8125 -3.0625 C 1.601562 -2.914062 1.453125 -2.726562 1.359375 -2.5 C 1.328125 -2.394531 1.300781 -2.269531 1.28125 -2.125 C 1.625 -2.25 1.960938 -2.375 2.296875 -2.5 C 2.628906 -2.625 2.96875 -2.75 3.3125 -2.875 C 3.207031 -2.988281 3.09375 -3.082031 2.96875 -3.15625 C 2.84375 -3.238281 2.707031 -3.28125 2.5625 -3.28125 Z M 4.46875 -2.359375 C 3.96875 -2.179688 3.472656 -2 2.984375 -1.8125 C 2.503906 -1.632812 2.019531 -1.457031 1.53125 -1.28125 C 1.632812 -1.125 1.773438 -1 1.953125 -0.90625 C 2.128906 -0.820312 2.332031 -0.78125 2.5625 -0.78125 C 2.882812 -0.78125 3.15625 -0.894531 3.375 -1.125 L 3.9375 -0.46875 C 3.75 -0.289062 3.539062 -0.148438 3.3125 -0.046875 C 3.082031 0.046875 2.832031 0.09375 2.5625 0.09375 C 2.25 0.09375 1.960938 0.0390625 1.703125 -0.0625 C 1.441406 -0.175781 1.210938 -0.332031 1.015625 -0.53125 C 0.816406 -0.726562 0.660156 -0.953125 0.546875 -1.203125 C 0.441406 -1.460938 0.390625 -1.738281 0.390625 -2.03125 C 0.390625 -2.320312 0.441406 -2.597656 0.546875 -2.859375 C 0.660156 -3.117188 0.816406 -3.34375 1.015625 -3.53125 C 1.210938 -3.726562 1.441406 -3.878906 1.703125 -3.984375 C 1.960938 -4.097656 2.25 -4.15625 2.5625 -4.15625 C 2.78125 -4.15625 2.992188 -4.109375 3.203125 -4.015625 C 3.410156 -3.929688 3.59375 -3.804688 3.75 -3.640625 C 3.914062 -3.484375 4.054688 -3.296875 4.171875 -3.078125 C 4.296875 -2.859375 4.394531 -2.617188 4.46875 -2.359375 Z M 4.46875 -2.359375 "/></g></g></g><g fill="#e0e5ec" fill-opacity="1"><g transform="translate(68.416841, 29.576462)"><g><path d="M 0.890625 -4.0625 L 1.671875 -4.0625 L 1.671875 -3.96875 C 1.691406 -3.789062 1.707031 -3.628906 1.71875 -3.484375 C 1.726562 -3.347656 1.738281 -3.191406 1.75 -3.015625 C 1.894531 -3.367188 2.128906 -3.644531 2.453125 -3.84375 C 2.773438 -4.050781 3.128906 -4.15625 3.515625 -4.15625 C 3.941406 -4.15625 4.273438 -4.039062 4.515625 -3.8125 C 4.765625 -3.59375 4.898438 -3.300781 4.921875 -2.9375 L 4.921875 0 L 4.015625 0 L 4.015625 -2.53125 C 4.003906 -2.726562 3.929688 -2.894531 3.796875 -3.03125 C 3.671875 -3.175781 3.472656 -3.253906 3.203125 -3.265625 C 3.015625 -3.265625 2.835938 -3.234375 2.671875 -3.171875 C 2.503906 -3.109375 2.351562 -3.019531 2.21875 -2.90625 C 2.09375 -2.789062 1.988281 -2.648438 1.90625 -2.484375 C 1.820312 -2.328125 1.78125 -2.15625 1.78125 -1.96875 L 1.78125 0 L 0.890625 0 Z M 0.890625 -4.0625 "/></g></g></g><g fill="#e0e5ec" fill-opacity="1"><g transform="translate(76.312152, 29.576462)"><g><path d="M 2.921875 0.25 C 2.535156 -0.46875 2.144531 -1.1875 1.75 -1.90625 C 1.363281 -2.625 0.972656 -3.34375 0.578125 -4.0625 L 1.484375 -4.0625 C 1.597656 -3.84375 1.722656 -3.617188 1.859375 -3.390625 C 1.992188 -3.160156 2.128906 -2.925781 2.265625 -2.6875 C 2.398438 -2.457031 2.519531 -2.222656 2.625 -1.984375 C 2.738281 -1.753906 2.835938 -1.523438 2.921875 -1.296875 C 2.992188 -1.523438 3.085938 -1.753906 3.203125 -1.984375 C 3.316406 -2.222656 3.441406 -2.457031 3.578125 -2.6875 C 3.710938 -2.925781 3.84375 -3.160156 3.96875 -3.390625 C 4.101562 -3.617188 4.234375 -3.84375 4.359375 -4.0625 L 5.265625 -4.0625 C 4.867188 -3.34375 4.476562 -2.625 4.09375 -1.90625 C 3.707031 -1.1875 3.316406 -0.46875 2.921875 0.25 Z M 2.921875 0.25 "/></g></g></g><g fill="#e0e5ec" fill-opacity="1"><g transform="translate(84.261581, 29.576462)"><g><path d="M 0.390625 -2.03125 C 0.390625 -2.320312 0.441406 -2.597656 0.546875 -2.859375 C 0.660156 -3.117188 0.816406 -3.34375 1.015625 -3.53125 C 1.210938 -3.726562 1.441406 -3.878906 1.703125 -3.984375 C 1.960938 -4.097656 2.25 -4.15625 2.5625 -4.15625 C 2.863281 -4.15625 3.144531 -4.097656 3.40625 -3.984375 C 3.675781 -3.878906 3.90625 -3.726562 4.09375 -3.53125 C 4.289062 -3.34375 4.445312 -3.117188 4.5625 -2.859375 C 4.675781 -2.597656 4.734375 -2.320312 4.734375 -2.03125 C 4.734375 -1.738281 4.675781 -1.460938 4.5625 -1.203125 C 4.445312 -0.953125 4.289062 -0.726562 4.09375 -0.53125 C 3.90625 -0.332031 3.675781 -0.175781 3.40625 -0.0625 C 3.144531 0.0390625 2.863281 0.09375 2.5625 0.09375 C 2.25 0.09375 1.960938 0.0390625 1.703125 -0.0625 C 1.441406 -0.175781 1.210938 -0.332031 1.015625 -0.53125 C 0.816406 -0.726562 0.660156 -0.953125 0.546875 -1.203125 C 0.441406 -1.460938 0.390625 -1.738281 0.390625 -2.03125 Z M 1.28125 -2.03125 C 1.28125 -1.851562 1.3125 -1.6875 1.375 -1.53125 C 1.445312 -1.382812 1.535156 -1.253906 1.640625 -1.140625 C 1.753906 -1.023438 1.890625 -0.9375 2.046875 -0.875 C 2.203125 -0.8125 2.363281 -0.78125 2.53125 -0.78125 C 2.707031 -0.78125 2.867188 -0.8125 3.015625 -0.875 C 3.171875 -0.9375 3.304688 -1.023438 3.421875 -1.140625 C 3.535156 -1.253906 3.625 -1.382812 3.6875 -1.53125 C 3.757812 -1.6875 3.796875 -1.851562 3.796875 -2.03125 C 3.796875 -2.195312 3.757812 -2.351562 3.6875 -2.5 C 3.625 -2.65625 3.535156 -2.789062 3.421875 -2.90625 C 3.304688 -3.03125 3.171875 -3.125 3.015625 -3.1875 C 2.867188 -3.25 2.707031 -3.28125 2.53125 -3.28125 C 2.363281 -3.28125 2.203125 -3.25 2.046875 -3.1875 C 1.890625 -3.125 1.753906 -3.03125 1.640625 -2.90625 C 1.535156 -2.789062 1.445312 -2.65625 1.375 -2.5 C 1.3125 -2.351562 1.28125 -2.195312 1.28125 -2.03125 Z M 1.28125 -2.03125 "/></g></g></g><g fill="#e0e5ec" fill-opacity="1"><g transform="translate(91.940406, 29.576462)"><g><path d="M 1.53125 0 L 0.625 0 L 0.625 -8.125 L 1.53125 -8.125 Z M 1.53125 0 "/></g></g></g><g fill="#e0e5ec" fill-opacity="1"><g transform="translate(96.57755, 29.576462)"><g><path d="M 2.921875 0.25 C 2.535156 -0.46875 2.144531 -1.1875 1.75 -1.90625 C 1.363281 -2.625 0.972656 -3.34375 0.578125 -4.0625 L 1.484375 -4.0625 C 1.597656 -3.84375 1.722656 -3.617188 1.859375 -3.390625 C 1.992188 -3.160156 2.128906 -2.925781 2.265625 -2.6875 C 2.398438 -2.457031 2.519531 -2.222656 2.625 -1.984375 C 2.738281 -1.753906 2.835938 -1.523438 2.921875 -1.296875 C 2.992188 -1.523438 3.085938 -1.753906 3.203125 -1.984375 C 3.316406 -2.222656 3.441406 -2.457031 3.578125 -2.6875 C 3.710938 -2.925781 3.84375 -3.160156 3.96875 -3.390625 C 4.101562 -3.617188 4.234375 -3.84375 4.359375 -4.0625 L 5.265625 -4.0625 C 4.867188 -3.34375 4.476562 -2.625 4.09375 -1.90625 C 3.707031 -1.1875 3.316406 -0.46875 2.921875 0.25 Z M 2.921875 0.25 "/></g></g></g><g fill="#e0e5ec" fill-opacity="1"><g transform="translate(104.526979, 29.576462)"><g><path d="M 2.5625 -3.28125 C 2.269531 -3.28125 2.019531 -3.207031 1.8125 -3.0625 C 1.601562 -2.914062 1.453125 -2.726562 1.359375 -2.5 C 1.328125 -2.394531 1.300781 -2.269531 1.28125 -2.125 C 1.625 -2.25 1.960938 -2.375 2.296875 -2.5 C 2.628906 -2.625 2.96875 -2.75 3.3125 -2.875 C 3.207031 -2.988281 3.09375 -3.082031 2.96875 -3.15625 C 2.84375 -3.238281 2.707031 -3.28125 2.5625 -3.28125 Z M 4.46875 -2.359375 C 3.96875 -2.179688 3.472656 -2 2.984375 -1.8125 C 2.503906 -1.632812 2.019531 -1.457031 1.53125 -1.28125 C 1.632812 -1.125 1.773438 -1 1.953125 -0.90625 C 2.128906 -0.820312 2.332031 -0.78125 2.5625 -0.78125 C 2.882812 -0.78125 3.15625 -0.894531 3.375 -1.125 L 3.9375 -0.46875 C 3.75 -0.289062 3.539062 -0.148438 3.3125 -0.046875 C 3.082031 0.046875 2.832031 0.09375 2.5625 0.09375 C 2.25 0.09375 1.960938 0.0390625 1.703125 -0.0625 C 1.441406 -0.175781 1.210938 -0.332031 1.015625 -0.53125 C 0.816406 -0.726562 0.660156 -0.953125 0.546875 -1.203125 C 0.441406 -1.460938 0.390625 -1.738281 0.390625 -2.03125 C 0.390625 -2.320312 0.441406 -2.597656 0.546875 -2.859375 C 0.660156 -3.117188 0.816406 -3.34375 1.015625 -3.53125 C 1.210938 -3.726562 1.441406 -3.878906 1.703125 -3.984375 C 1.960938 -4.097656 2.25 -4.15625 2.5625 -4.15625 C 2.78125 -4.15625 2.992188 -4.109375 3.203125 -4.015625 C 3.410156 -3.929688 3.59375 -3.804688 3.75 -3.640625 C 3.914062 -3.484375 4.054688 -3.296875 4.171875 -3.078125 C 4.296875 -2.859375 4.394531 -2.617188 4.46875 -2.359375 Z M 4.46875 -2.359375 "/></g></g></g><g fill="#e0e5ec" fill-opacity="1"><g transform="translate(111.946008, 29.576462)"><g><path d="M 1.4375 -2.03125 C 1.4375 -1.675781 1.550781 -1.378906 1.78125 -1.140625 C 2.019531 -0.898438 2.328125 -0.78125 2.703125 -0.78125 C 3.078125 -0.78125 3.378906 -0.898438 3.609375 -1.140625 C 3.847656 -1.378906 3.96875 -1.675781 3.96875 -2.03125 C 3.96875 -2.394531 3.847656 -2.691406 3.609375 -2.921875 C 3.378906 -3.160156 3.078125 -3.28125 2.703125 -3.28125 C 2.328125 -3.28125 2.019531 -3.160156 1.78125 -2.921875 C 1.550781 -2.691406 1.4375 -2.394531 1.4375 -2.03125 Z M 0.53125 -2.03125 C 0.53125 -2.320312 0.582031 -2.59375 0.6875 -2.84375 C 0.800781 -3.101562 0.957031 -3.332031 1.15625 -3.53125 C 1.351562 -3.726562 1.582031 -3.878906 1.84375 -3.984375 C 2.113281 -4.097656 2.398438 -4.15625 2.703125 -4.15625 C 2.898438 -4.15625 3.082031 -4.128906 3.25 -4.078125 C 3.414062 -4.023438 3.554688 -3.960938 3.671875 -3.890625 C 3.796875 -3.828125 3.894531 -3.765625 3.96875 -3.703125 C 4.039062 -3.640625 4.078125 -3.597656 4.078125 -3.578125 C 4.066406 -3.628906 4.050781 -3.679688 4.03125 -3.734375 C 4.007812 -3.796875 3.988281 -3.859375 3.96875 -3.921875 L 3.96875 -8.125 L 4.875 -8.125 L 4.875 0 L 4.078125 0 L 4.078125 -0.4375 C 4.078125 -0.414062 4.046875 -0.375 3.984375 -0.3125 C 3.921875 -0.257812 3.832031 -0.203125 3.71875 -0.140625 C 3.601562 -0.078125 3.457031 -0.0234375 3.28125 0.015625 C 3.113281 0.0664062 2.921875 0.09375 2.703125 0.09375 C 2.398438 0.09375 2.113281 0.0390625 1.84375 -0.0625 C 1.582031 -0.175781 1.351562 -0.332031 1.15625 -0.53125 C 0.957031 -0.726562 0.800781 -0.957031 0.6875 -1.21875 C 0.582031 -1.476562 0.53125 -1.75 0.53125 -2.03125 Z M 0.53125 -2.03125 "/></g></g></g><g fill="#e0e5ec" fill-opacity="1"><g transform="translate(120.198533, 29.576462)"><g><path d="M 0.390625 -2.03125 C 0.390625 -2.320312 0.441406 -2.597656 0.546875 -2.859375 C 0.660156 -3.117188 0.816406 -3.34375 1.015625 -3.53125 C 1.210938 -3.726562 1.441406 -3.878906 1.703125 -3.984375 C 1.960938 -4.097656 2.25 -4.15625 2.5625 -4.15625 C 2.863281 -4.15625 3.144531 -4.097656 3.40625 -3.984375 C 3.675781 -3.878906 3.90625 -3.726562 4.09375 -3.53125 C 4.289062 -3.34375 4.445312 -3.117188 4.5625 -2.859375 C 4.675781 -2.597656 4.734375 -2.320312 4.734375 -2.03125 C 4.734375 -1.738281 4.675781 -1.460938 4.5625 -1.203125 C 4.445312 -0.953125 4.289062 -0.726562 4.09375 -0.53125 C 3.90625 -0.332031 3.675781 -0.175781 3.40625 -0.0625 C 3.144531 0.0390625 2.863281 0.09375 2.5625 0.09375 C 2.25 0.09375 1.960938 0.0390625 1.703125 -0.0625 C 1.441406 -0.175781 1.210938 -0.332031 1.015625 -0.53125 C 0.816406 -0.726562 0.660156 -0.953125 0.546875 -1.203125 C 0.441406 -1.460938 0.390625 -1.738281 0.390625 -2.03125 Z M 1.28125 -2.03125 C 1.28125 -1.851562 1.3125 -1.6875 1.375 -1.53125 C 1.445312 -1.382812 1.535156 -1.253906 1.640625 -1.140625 C 1.753906 -1.023438 1.890625 -0.9375 2.046875 -0.875 C 2.203125 -0.8125 2.363281 -0.78125 2.53125 -0.78125 C 2.707031 -0.78125 2.867188 -0.8125 3.015625 -0.875 C 3.171875 -0.9375 3.304688 -1.023438 3.421875 -1.140625 C 3.535156 -1.253906 3.625 -1.382812 3.6875 -1.53125 C 3.757812 -1.6875 3.796875 -1.851562 3.796875 -2.03125 C 3.796875 -2.195312 3.757812 -2.351562 3.6875 -2.5 C 3.625 -2.65625 3.535156 -2.789062 3.421875 -2.90625 C 3.304688 -3.03125 3.171875 -3.125 3.015625 -3.1875 C 2.867188 -3.25 2.707031 -3.28125 2.53125 -3.28125 C 2.363281 -3.28125 2.203125 -3.25 2.046875 -3.1875 C 1.890625 -3.125 1.753906 -3.03125 1.640625 -2.90625 C 1.535156 -2.789062 1.445312 -2.65625 1.375 -2.5 C 1.3125 -2.351562 1.28125 -2.195312 1.28125 -2.03125 Z M 1.28125 -2.03125 "/></g></g></g><g fill="#e0e5ec" fill-opacity="1"><g transform="translate(127.877358, 29.576462)"><g><path d="M 3.25 -3.265625 C 2.8125 -3.265625 2.457031 -3.140625 2.1875 -2.890625 C 1.914062 -2.648438 1.78125 -2.34375 1.78125 -1.96875 L 1.78125 0 L 0.890625 0 L 0.890625 -4.0625 L 1.671875 -4.0625 L 1.671875 -3.96875 C 1.691406 -3.789062 1.707031 -3.628906 1.71875 -3.484375 C 1.726562 -3.347656 1.738281 -3.191406 1.75 -3.015625 C 1.84375 -3.203125 1.953125 -3.363281 2.078125 -3.5 C 2.210938 -3.644531 2.351562 -3.765625 2.5 -3.859375 C 2.65625 -3.953125 2.800781 -4.023438 2.9375 -4.078125 C 3.082031 -4.128906 3.207031 -4.15625 3.3125 -4.15625 Z M 3.25 -3.265625 "/></g></g></g><g fill="#e0e5ec" fill-opacity="1"><g transform="translate(133.997453, 29.576462)"><g/></g></g><g fill="#e0e5ec" fill-opacity="1"><g transform="translate(139.781989, 29.576462)"><g><path d="M 10.4375 -7.578125 L 11.34375 -7.578125 C 10.78125 -6.253906 10.21875 -4.929688 9.65625 -3.609375 C 9.101562 -2.296875 8.546875 -0.976562 7.984375 0.34375 L 6.0625 -4.171875 C 6.050781 -4.234375 6.035156 -4.296875 6.015625 -4.359375 C 5.992188 -4.421875 5.972656 -4.484375 5.953125 -4.546875 C 5.847656 -4.140625 5.71875 -3.726562 5.5625 -3.3125 C 5.40625 -2.90625 5.234375 -2.492188 5.046875 -2.078125 C 4.859375 -1.671875 4.664062 -1.257812 4.46875 -0.84375 C 4.28125 -0.4375 4.101562 -0.0390625 3.9375 0.34375 C 3.375 -0.976562 2.8125 -2.296875 2.25 -3.609375 C 1.695312 -4.929688 1.140625 -6.253906 0.578125 -7.578125 L 1.484375 -7.578125 C 1.878906 -6.640625 2.269531 -5.707031 2.65625 -4.78125 C 3.050781 -3.863281 3.445312 -2.9375 3.84375 -2 L 3.9375 -1.640625 C 4.03125 -1.972656 4.140625 -2.296875 4.265625 -2.609375 C 4.390625 -2.929688 4.519531 -3.253906 4.65625 -3.578125 C 4.800781 -3.898438 4.945312 -4.21875 5.09375 -4.53125 C 5.238281 -4.851562 5.378906 -5.171875 5.515625 -5.484375 C 5.367188 -5.835938 5.21875 -6.1875 5.0625 -6.53125 C 4.914062 -6.875 4.769531 -7.222656 4.625 -7.578125 L 5.515625 -7.578125 C 5.921875 -6.640625 6.316406 -5.707031 6.703125 -4.78125 C 7.085938 -3.863281 7.476562 -2.9375 7.875 -2 L 7.984375 -1.640625 L 8.078125 -2 C 8.472656 -2.9375 8.863281 -3.863281 9.25 -4.78125 C 9.644531 -5.707031 10.039062 -6.640625 10.4375 -7.578125 Z M 10.4375 -7.578125 "/></g></g></g><g fill="#e0e5ec" fill-opacity="1"><g transform="translate(154.312695, 29.576462)"><g><path d="M 0.75 0 L 0.75 -7.578125 L 5.40625 -7.578125 L 5.40625 -6.71875 L 1.640625 -6.71875 L 1.640625 -4.25 L 4.984375 -4.25 L 4.984375 -3.390625 L 1.640625 -3.390625 L 1.640625 -0.859375 L 5.5625 -0.859375 L 5.5625 0 Z M 0.75 0 "/></g></g></g><g fill="#e0e5ec" fill-opacity="1"><g transform="translate(163.355398, 29.576462)"><g><path d="M 1.53125 -6.71875 L 1.53125 -4.25 L 2.703125 -4.25 C 3.117188 -4.25 3.453125 -4.363281 3.703125 -4.59375 C 3.953125 -4.832031 4.078125 -5.148438 4.078125 -5.546875 C 4.078125 -5.972656 3.945312 -6.273438 3.6875 -6.453125 C 3.425781 -6.628906 3.085938 -6.71875 2.671875 -6.71875 Z M 1.53125 -3.390625 L 1.53125 -0.859375 L 2.734375 -0.859375 C 2.953125 -0.859375 3.160156 -0.878906 3.359375 -0.921875 C 3.554688 -0.972656 3.726562 -1.050781 3.875 -1.15625 C 4.019531 -1.269531 4.132812 -1.398438 4.21875 -1.546875 C 4.3125 -1.703125 4.359375 -1.882812 4.359375 -2.09375 C 4.359375 -2.3125 4.304688 -2.503906 4.203125 -2.671875 C 4.097656 -2.835938 3.960938 -2.972656 3.796875 -3.078125 C 3.640625 -3.179688 3.453125 -3.257812 3.234375 -3.3125 C 3.015625 -3.363281 2.796875 -3.390625 2.578125 -3.390625 Z M 0.625 0 L 0.625 -7.578125 L 2.609375 -7.578125 C 2.960938 -7.578125 3.285156 -7.539062 3.578125 -7.46875 C 3.867188 -7.394531 4.117188 -7.28125 4.328125 -7.125 C 4.535156 -6.976562 4.695312 -6.785156 4.8125 -6.546875 C 4.925781 -6.304688 4.984375 -6.019531 4.984375 -5.6875 C 4.984375 -5.238281 4.875 -4.84375 4.65625 -4.5 C 4.445312 -4.164062 4.125 -3.9375 3.6875 -3.8125 C 3.894531 -3.769531 4.09375 -3.695312 4.28125 -3.59375 C 4.46875 -3.488281 4.628906 -3.359375 4.765625 -3.203125 C 4.910156 -3.046875 5.023438 -2.863281 5.109375 -2.65625 C 5.203125 -2.445312 5.25 -2.210938 5.25 -1.953125 C 5.25 -1.628906 5.179688 -1.34375 5.046875 -1.09375 C 4.910156 -0.851562 4.726562 -0.648438 4.5 -0.484375 C 4.269531 -0.328125 4.003906 -0.207031 3.703125 -0.125 C 3.410156 -0.0390625 3.109375 0 2.796875 0 Z M 0.625 0 "/></g></g></g></svg>